<svg xmlns="http://www.w3.org/2000/svg" width="40" height="40" viewBox="0 0 40 40">
    <g fill="none" fill-rule="evenodd">
        <rect width="40" height="40" fill="#18518B" rx="3"/>
        <path fill="#39FDF2" fill-rule="nonzero" d="M19.864 12.637c-4.533 0-8.645 2.575-11.678 6.76a1.006 1.006 0 0 0 0 1.164c3.033 4.188 7.145 6.764 11.678 6.764 4.534 0 8.645-2.576 11.68-6.76a1.006 1.006 0 0 0 0-1.164c-3.035-4.189-7.146-6.764-11.68-6.764zm.326 12.516c-3.01.196-5.495-2.38-5.306-5.51.156-2.58 2.17-4.673 4.655-4.834 3.01-.197 5.495 2.38 5.306 5.51-.16 2.575-2.175 4.667-4.655 4.834zm-.15-2.39c-1.622.106-2.962-1.28-2.855-2.964.083-1.39 1.17-2.515 2.51-2.606 1.62-.106 2.96 1.28 2.854 2.964-.088 1.397-1.175 2.52-2.51 2.606z"/>
    </g>
</svg>
