<svg xmlns="http://www.w3.org/2000/svg" width="19" height="19" viewBox="0 0 19 19">
    <g fill="#FFF" fill-rule="nonzero" opacity=".5">
        <path d="M2.008 6.482C1.346 6.482.82 6.99.82 7.63v4.781c0 .64.526 1.148 1.188 1.148.661 0 1.188-.509 1.188-1.148V7.63c0-.64-.527-1.148-1.188-1.148zm13.855 0c-.662 0-1.188.508-1.188 1.148v4.781c0 .64.526 1.148 1.188 1.148.661 0 1.188-.509 1.188-1.148V7.63c0-.64-.527-1.148-1.188-1.148zM6.952 11.908c-.662 0-1.19.508-1.19 1.147v4.782c0 .639.528 1.148 1.19 1.148.663 0 1.19-.51 1.19-1.148v-4.782c0-.639-.527-1.147-1.19-1.147zm3.966 0c-.663 0-1.19.508-1.19 1.147v4.782c0 .639.527 1.148 1.19 1.148.663 0 1.19-.51 1.19-1.148v-4.782c0-.639-.527-1.147-1.19-1.147z"/>
        <path d="M14.183 6.68v7.412c0 .685-.57 1.236-1.276 1.236H4.903c-.707 0-1.276-.551-1.276-1.236V6.68h10.556zM12.182.466c.028 0 .054.008.08.021.084.046.112.14.065.222l-.834 1.459c1.604.808 2.688 2.345 2.69 4.109H3.627c.002-1.764 1.085-3.3 2.69-4.11L5.483.71a.156.156 0 0 1 .065-.222.169.169 0 0 1 .228.064l.845 1.475a5.781 5.781 0 0 1 2.284-.464c.818 0 1.593.167 2.284.464L12.033.55a.167.167 0 0 1 .149-.085zM6.507 3.533c-.24 0-.44.287-.44.633 0 .346.2.633.44.633s.439-.287.439-.633c0-.346-.2-.633-.44-.633zm4.857 0c-.24 0-.44.287-.44.633 0 .346.2.633.44.633s.44-.287.44-.633c0-.346-.2-.633-.44-.633z"/>
    </g>
</svg>
