<svg xmlns="http://www.w3.org/2000/svg" width="17" height="20" viewBox="0 0 17 20">
    <g fill="#FFF" fill-rule="evenodd" opacity=".5">
        <path d="M12.593.434c0 .958-.353 1.852-1.057 2.68-.85.984-1.878 1.553-2.993 1.463a2.953 2.953 0 0 1-.023-.363c0-.92.405-1.903 1.122-2.708A4.317 4.317 0 0 1 11.01.49c.552-.266 1.074-.414 1.564-.439.014.128.02.256.02.383z"/>
        <path d="M16.325 14.976a10.39 10.39 0 0 1-1.04 1.85c-.546.773-.994 1.307-1.339 1.604-.535.487-1.108.736-1.722.75-.44 0-.971-.124-1.59-.376-.62-.25-1.19-.374-1.712-.374-.546 0-1.133.124-1.76.374-.628.252-1.134.383-1.521.396-.589.025-1.175-.231-1.76-.77-.374-.323-.842-.876-1.401-1.66-.601-.837-1.095-1.808-1.482-2.914-.414-1.195-.622-2.352-.622-3.473 0-1.283.28-2.39.841-3.318a4.909 4.909 0 0 1 1.761-1.764 4.774 4.774 0 0 1 2.382-.665c.467 0 1.08.143 1.842.424.76.282 1.247.425 1.46.425.16 0 .702-.167 1.62-.5.87-.31 1.602-.438 2.203-.388 1.627.13 2.85.765 3.662 1.91-1.455.873-2.175 2.096-2.16 3.665.013 1.221.46 2.238 1.34 3.046.399.374.844.664 1.34.87-.108.308-.221.604-.342.888z"/>
    </g>
</svg>
