<svg xmlns="http://www.w3.org/2000/svg" width="40" height="40" viewBox="0 0 40 40">
    <g fill="none" fill-rule="evenodd">
        <rect width="40" height="40" fill="#18518B" rx="3"/>
        <g fill="#39FDF2" fill-rule="nonzero">
            <path d="M27.909 16.54l-.478-2.644a1.922 1.922 0 0 0-1.618-1.568l-2.646-.377-2.194-1.53a1.9 1.9 0 0 0-1.112-.34 1.907 1.907 0 0 0-1.192.386l-2.135 1.615-2.627.48c-.147.027-.29.071-.426.131a1.944 1.944 0 0 0-1.132 1.5l-.375 2.661-1.52 2.21a1.939 1.939 0 0 0 .043 2.262l1.605 2.149.477 2.644c.131.73.66 1.308 1.351 1.51l.068-.001c.084.024.169.045.257.058l2.644.378 1.61 1.122-.062-.002.592.413a1.92 1.92 0 0 0 1.16.34c.402-.001.804-.13 1.143-.386l2.134-1.614 2.628-.481c.66-.121 1.2-.569 1.445-1.198.053-.139.092-.284.113-.434l.375-2.66 1.52-2.21a1.958 1.958 0 0 0-.043-2.262L27.91 16.54zm-7.91 9.95a6.4 6.4 0 0 1-4.52-1.898 6.514 6.514 0 0 1 0-9.17 6.402 6.402 0 0 1 4.533-1.899c3.542.02 6.408 2.914 6.408 6.483 0 3.575-2.873 6.472-6.422 6.484z"/>
            <path d="M24.02 17.76a.878.878 0 0 0-1.247 0l-3.257 3.274-1.76-1.77a.878.878 0 0 0-1.248.001.89.89 0 0 0 0 1.254l2.385 2.397a.878.878 0 0 0 1.247 0l3.88-3.902a.89.89 0 0 0 0-1.254z"/>
        </g>
    </g>
</svg>
