<svg xmlns="http://www.w3.org/2000/svg" width="40" height="40" viewBox="0 0 40 40">
    <g fill="none" fill-rule="evenodd">
        <rect width="40" height="40" fill="#18518B" rx="3"/>
        <g fill="#39FDF2" transform="translate(11 8)">
            <path d="M16 0a2 2 0 0 1 2 2v20a2 2 0 0 1-2 2H2a2 2 0 0 1-2-2V2a2 2 0 0 1 2-2h14zm-1 2H3a1 1 0 0 0-1 1v18a1 1 0 0 0 1 1h12a1 1 0 0 0 1-1V3a1 1 0 0 0-1-1z"/>
            <rect width="10" height="1" x="4" y="12" rx=".5"/>
            <rect width="10" height="5" x="4" y="5" rx="2"/>
            <rect width="10" height="1" x="4" y="15" rx=".5"/>
            <rect width="10" height="1" x="4" y="18" rx=".5"/>
        </g>
    </g>
</svg>
