<svg xmlns="http://www.w3.org/2000/svg" width="21" height="18" viewBox="0 0 21 18">
    <path fill="#FFF" fill-rule="nonzero" d="M20.222.528a1.663 1.663 0 0 0-1.22-.507H1.727C1.252.02.846.19.507.528A1.663 1.663 0 0 0 0 1.748v11.747c0 .475.17.881.507 1.22.339.338.745.507 1.22.507h5.874c0 .273-.058.554-.173.842-.115.288-.23.54-.345.756-.116.216-.173.374-.173.475 0 .187.068.35.205.485a.664.664 0 0 0 .486.206h5.528c.187 0 .349-.069.485-.206a.663.663 0 0 0 .206-.485c0-.094-.058-.25-.173-.47a7.92 7.92 0 0 1-.346-.766 2.276 2.276 0 0 1-.172-.837h5.873c.475 0 .881-.169 1.22-.507.338-.339.507-.745.507-1.22V1.748c0-.475-.169-.882-.507-1.22zm-.875 10.203a.332.332 0 0 1-.102.243.333.333 0 0 1-.243.102H1.727a.332.332 0 0 1-.242-.102.333.333 0 0 1-.103-.243V1.748c0-.094.034-.174.103-.243a.333.333 0 0 1 .242-.102h17.275c.093 0 .175.034.243.102.068.069.102.15.102.243v8.983z"/>
</svg>
